<?xml version="1.0" encoding="UTF-8" standalone="no"?>
<!-- Created with Inkscape (http://www.inkscape.org/) -->

<svg
   width="210mm"
   height="297mm"
   viewBox="0 0 210 297"
   version="1.1"
   id="svg1"
   sodipodi:docname="hex.svg"
   inkscape:version="1.4 (86a8ad7, 2024-10-11)"
   xml:space="preserve"
   xmlns:inkscape="http://www.inkscape.org/namespaces/inkscape"
   xmlns:sodipodi="http://sodipodi.sourceforge.net/DTD/sodipodi-0.dtd"
   xmlns="http://www.w3.org/2000/svg"
   xmlns:svg="http://www.w3.org/2000/svg"><sodipodi:namedview
     id="namedview1"
     pagecolor="#ffffff"
     bordercolor="#cccccc"
     borderopacity="1"
     inkscape:showpageshadow="0"
     inkscape:pageopacity="1"
     inkscape:pagecheckerboard="0"
     inkscape:deskcolor="#d1d1d1"
     inkscape:document-units="mm"
     inkscape:zoom="2.1494558"
     inkscape:cx="-800.43518"
     inkscape:cy="-98.862235"
     inkscape:window-width="1920"
     inkscape:window-height="991"
     inkscape:window-x="-9"
     inkscape:window-y="-9"
     inkscape:window-maximized="1"
     inkscape:current-layer="layer1" /><defs
     id="defs1" /><g
     inkscape:label="Layer 1"
     inkscape:groupmode="layer"
     id="layer1"><g
       id="g24"
       inkscape:label="subT2"
       transform="matrix(0.08251614,-0.14292215,-0.14292215,-0.08251614,-192.37592,-69.050378)"><path
         style="fill:#8acdd8;fill-opacity:1;stroke:#000000;stroke-width:1.236;stroke-linecap:round;stroke-linejoin:round;stroke-dasharray:none;stroke-opacity:1"
         d="M -135.19676,-92.051756 -119.32296,-119.54597 H -87.575383 L -71.701591,-92.051764 -87.575386,-64.557544 -119.32297,-64.557545 Z"
         id="path19" /><path
         style="fill:#d88a8a;fill-opacity:1;stroke:#000000;stroke-width:1.236;stroke-linecap:round;stroke-linejoin:round;stroke-opacity:1"
         d="M -135.19676,-92.051756 -154.81826,-92.051765 -138.94447,-64.557554 -119.32297,-64.557545 Z"
         id="path18" /><path
         style="fill:#8acdd8;fill-opacity:1;stroke:#000000;stroke-width:1.236;stroke-linecap:round;stroke-linejoin:round;stroke-dasharray:none;stroke-opacity:1"
         d="M -186.56585,-92.051765 H -154.81826 L -138.94447,-64.557553 -154.81826,-37.063341 H -186.56585 L -202.43964,-64.557553 Z"
         id="path20" /></g><g
       id="g17"
       inkscape:label="subT1"
       transform="matrix(0.16503229,0,0,0.16503229,-169.87431,-30.076442)"><path
         style="fill:#8acdd8;fill-opacity:1;stroke:#000000;stroke-width:1.236;stroke-linecap:round;stroke-linejoin:round;stroke-dasharray:none;stroke-opacity:1"
         d="M -261.33377,8.8872628 -245.45997,36.381482 -261.33376,63.875693 H -293.08134 L -308.95514,36.381474 -293.08135,8.8872624 Z"
         id="path17" /><path
         style="fill:#8acdd8;fill-opacity:1;stroke:#000000;stroke-width:1.236;stroke-linecap:round;stroke-linejoin:round;stroke-dasharray:none;stroke-opacity:1"
         d="M -338.38738,53.374181 -322.51358,80.8684 -338.38737,108.36261 H -370.13495 L -386.00875,80.868392 -370.13496,53.37418 Z"
         id="path10" /><path
         style="fill:#c4d88a;fill-opacity:1;stroke:#000000;stroke-width:1.236;stroke-linecap:round;stroke-linejoin:round;stroke-opacity:1"
         d="M -338.38738,19.388748 H -318.76588 L -308.95514,36.381462 -318.76588,53.374181 H -338.38738 L -348.19813,36.381462 Z"
         id="path6-5" /><path
         style="fill:#9d8ad8;fill-opacity:1;stroke:#000000;stroke-width:1.236;stroke-linecap:round;stroke-linejoin:round;stroke-opacity:1"
         d="M -318.76588,53.374184 -338.38738,53.374181 -322.51359,80.868392 -302.89209,80.868395 Z"
         id="path9-8" /><path
         style="fill:#d88a8a;fill-opacity:1;stroke:#000000;stroke-width:1.236;stroke-linecap:round;stroke-linejoin:round;stroke-opacity:1"
         d="M -318.76588,53.374184 -308.95514,36.381465 -293.08135,63.875676 -302.89209,80.868395 Z"
         id="path11" /><path
         style="fill:#9d8ad8;fill-opacity:1;stroke:#000000;stroke-width:1.236;stroke-linecap:round;stroke-linejoin:round;stroke-opacity:1"
         d="M -318.76589,19.388747 -308.95514,36.381474 -293.08135,8.88727 -302.8921,-8.105465 Z"
         id="path12" /><path
         style="fill:#d88a8a;fill-opacity:1;stroke:#000000;stroke-width:1.236;stroke-linecap:round;stroke-linejoin:round;stroke-opacity:1"
         d="M -318.76589,19.388747 -338.38738,19.388759 -322.51359,-8.10545 -302.8921,-8.105465 Z"
         id="path13" /><path
         style="fill:#9d8ad8;fill-opacity:1;stroke:#000000;stroke-width:1.236;stroke-linecap:round;stroke-linejoin:round;stroke-opacity:1"
         d="M -348.19813,36.381479 -338.38738,19.388759 -370.13494,19.388752 -379.94572,36.381482 Z"
         id="path14" /><path
         style="fill:#d88a8a;fill-opacity:1;stroke:#000000;stroke-width:1.236;stroke-linecap:round;stroke-linejoin:round;stroke-opacity:1"
         d="M -348.19813,36.381479 -338.38738,53.374181 H -370.13496 L -379.94572,36.381482 Z"
         id="path15" /><path
         style="fill:#8acdd8;fill-opacity:1;stroke:#000000;stroke-width:1.236;stroke-linecap:round;stroke-linejoin:round;stroke-dasharray:none;stroke-opacity:1"
         d="M -338.38739,-35.599671 -322.51359,-8.1054518 -338.38738,19.388759 H -370.13496 L -386.00876,-8.1054602 -370.13497,-35.599672 Z"
         id="path16" /></g><g
       id="g25"
       inkscape:label="superT2"
       transform="matrix(0.08251614,-0.14292215,-0.14292215,-0.08251614,-192.37592,-69.050378)"><path
         style="fill:none;fill-opacity:0.499086;stroke:#d88a8a;stroke-width:2;stroke-linecap:round;stroke-linejoin:round;stroke-opacity:1"
         d="M -154.81826,-92.051765 -170.69326,-64.555466 H -119.32177 L -103.44677,-92.051765 Z"
         id="path9" /></g><g
       id="g18"
       inkscape:label="superT1"
       transform="matrix(0.16503229,0,0,0.16503229,-169.87431,-30.076442)"><path
         style="fill:none;fill-opacity:0.499086;stroke:#8acdd8;stroke-width:2;stroke-linecap:round;stroke-linejoin:round;stroke-dasharray:none;stroke-opacity:1"
         d="M -354.26358,-8.1096496 H -302.89209 L -277.20634,36.379363 -302.89209,80.868392 H -354.26358 L -379.94933,36.379363 Z"
         id="path7" /></g><g
       id="g23"
       inkscape:label="subT3"
       transform="matrix(0.16503229,0,0,0.16503229,-169.87431,-30.076442)"><path
         style="fill:#8acdd8;fill-opacity:1;stroke:#000000;stroke-width:1.236;stroke-linecap:round;stroke-linejoin:round;stroke-dasharray:none;stroke-opacity:1"
         d="M -116.13429,0.605162 H -84.386696 L -68.512906,28.099374 -84.386696,55.593586 H -116.13429 L -132.00808,28.099374 Z"
         id="path23" /><path
         style="fill:#8acdd8;fill-opacity:1;stroke:#000000;stroke-width:1.236;stroke-linecap:round;stroke-linejoin:round;stroke-dasharray:none;stroke-opacity:1"
         d="M -116.13429,55.593586 H -84.386696 L -68.512906,83.087798 -84.386696,110.58201 H -116.13429 L -132.00808,83.087798 Z"
         id="path21" /><path
         style="fill:#8acdd8;fill-opacity:1;stroke:#000000;stroke-width:1.236;stroke-linecap:round;stroke-linejoin:round;stroke-dasharray:none;stroke-opacity:1"
         d="M -68.512906,28.099374 H -36.765312 L -20.891522,55.593586 -36.765312,83.087798 H -68.512906 L -84.386696,55.593586 Z"
         id="path22" /></g><g
       id="g26"
       inkscape:label="superT3"
       transform="matrix(0.16503229,0,0,0.16503229,-169.87431,-30.076442)"><path
         style="fill:none;fill-opacity:0.499086;stroke:#c4d88a;stroke-width:2;stroke-linecap:round;stroke-linejoin:round;stroke-opacity:1"
         d="M -100.26291,28.095189 H -68.512906 L -52.637916,55.591489 -68.512906,83.087798 H -100.26291 L -116.13791,55.591489 Z"
         id="path6"
         inkscape:label="lkasdma" /></g><g
       id="g28"
       inkscape:label="subT4"
       transform="matrix(-0.08251614,-0.14292215,0.14292215,-0.08251614,-216.64029,-78.060066)"><path
         style="fill:#8acdd8;fill-opacity:1;stroke:#000000;stroke-width:1.236;stroke-linecap:round;stroke-linejoin:round;stroke-dasharray:none;stroke-opacity:1"
         d="M -119.32297,-119.54597 H -87.57538 L -71.70159,-92.051756 -87.57538,-64.557544 H -119.32297 L -135.19676,-92.051756 Z"
         id="path26" /><path
         style="fill:#9d8ad8;fill-opacity:1;stroke:#000000;stroke-width:1.236;stroke-linecap:round;stroke-linejoin:round;stroke-opacity:1"
         d="M -135.19676,-92.051756 -154.81826,-92.051765 -138.94447,-64.557554 -119.32297,-64.557545 Z"
         id="path27" /><path
         style="fill:#8acdd8;fill-opacity:1;stroke:#000000;stroke-width:1.236;stroke-linecap:round;stroke-linejoin:round;stroke-dasharray:none;stroke-opacity:1"
         d="M -154.81826,-92.051765 -138.94446,-64.557545 -154.81825,-37.063334 -186.56583,-37.063333 -202.43963,-64.557553 -186.56584,-92.051764 Z"
         id="path28" /></g><g
       id="g29"
       inkscape:label="superT4"
       transform="matrix(-0.08251614,-0.14292215,0.14292215,-0.08251614,-216.64029,-78.060066)"><path
         style="fill:none;fill-opacity:0.499086;stroke:#9d8ad8;stroke-width:2;stroke-linecap:round;stroke-linejoin:round;stroke-opacity:1"
         d="M -154.81826,-92.051765 -170.69326,-64.555466 H -119.32177 L -103.44677,-92.051765 Z"
         id="path29" /></g></g></svg>
